<svg width="320" height="56" viewBox="0 0 320 56" fill="none" xmlns="http://www.w3.org/2000/svg">
<path d="M303 28L320 28" stroke="#D0D0D8"/>
<path d="M0 28L17 28" stroke="#D0D0D8"/>
<path d="M32.8175 5.31576C34.9762 2.29361 38.4615 0.5 42.1754 0.5H277.825C281.539 0.5 285.024 2.29361 287.183 5.31576L303.386 28L287.183 50.6842C285.024 53.7064 281.539 55.5 277.825 55.5H42.1754C38.4615 55.5 34.9762 53.7064 32.8175 50.6842L16.6145 28L32.8175 5.31576Z" fill="white" stroke="#D0D0D8"/>
<path d="M45.2464 33H43.2776L46.8621 22.8182H49.1391L52.7286 33H50.7599L48.0404 24.9062H47.9608L45.2464 33ZM45.311 29.0078H50.6803V30.4893H45.311V29.0078Z" fill="#2869E8" fill-opacity="0.8"/>
<path d="M68.6335 22.8182V33H67.4006V24.1108H67.3409L64.8551 25.7614V24.5085L67.4006 22.8182H68.6335ZM74.8828 33.1392C74.1338 33.1392 73.4957 32.9354 72.9688 32.5277C72.4418 32.1167 72.0391 31.5218 71.7607 30.7429C71.4822 29.9607 71.343 29.0161 71.343 27.9091C71.343 26.8087 71.4822 25.8691 71.7607 25.0902C72.0424 24.308 72.4467 23.7114 72.9737 23.3004C73.504 22.8861 74.1404 22.679 74.8828 22.679C75.6252 22.679 76.2599 22.8861 76.7869 23.3004C77.3172 23.7114 77.7216 24.308 78 25.0902C78.2817 25.8691 78.4226 26.8087 78.4226 27.9091C78.4226 29.0161 78.2834 29.9607 78.005 30.7429C77.7266 31.5218 77.3239 32.1167 76.7969 32.5277C76.2699 32.9354 75.6319 33.1392 74.8828 33.1392ZM74.8828 32.0455C75.6252 32.0455 76.2019 31.6875 76.6129 30.9716C77.0239 30.2557 77.2294 29.2348 77.2294 27.9091C77.2294 27.0275 77.1349 26.2768 76.946 25.657C76.7604 25.0372 76.492 24.5649 76.1406 24.2401C75.7926 23.9152 75.3733 23.7528 74.8828 23.7528C74.147 23.7528 73.572 24.1158 73.1577 24.8416C72.7434 25.5642 72.5362 26.5866 72.5362 27.9091C72.5362 28.7907 72.629 29.5398 72.8146 30.1562C73.0002 30.7727 73.267 31.2417 73.6151 31.5632C73.9664 31.8847 74.389 32.0455 74.8828 32.0455ZM85.0249 35.8636C84.826 35.8636 84.6487 35.8471 84.4929 35.8139C84.3371 35.7841 84.2294 35.7543 84.1697 35.7244L84.468 34.6903C84.7531 34.7633 85.005 34.7898 85.2237 34.7699C85.4425 34.75 85.6364 34.6522 85.8054 34.4766C85.9777 34.3042 86.1352 34.0241 86.2777 33.6364L86.4964 33.0398L83.6726 25.3636H84.9453L87.0533 31.4489H87.1328L89.2408 25.3636H90.5135L87.272 34.1136C87.1262 34.508 86.9455 34.8345 86.7301 35.093C86.5147 35.3549 86.2644 35.5488 85.9794 35.6747C85.6977 35.8007 85.3795 35.8636 85.0249 35.8636ZM94.9904 33.1591C94.2546 33.1591 93.6199 32.9967 93.0863 32.6719C92.556 32.3438 92.1467 31.8864 91.8583 31.2997C91.5733 30.7098 91.4308 30.0237 91.4308 29.2415C91.4308 28.4593 91.5733 27.7699 91.8583 27.1733C92.1467 26.5734 92.5477 26.1061 93.0614 25.7713C93.5785 25.4332 94.1817 25.2642 94.8711 25.2642C95.2688 25.2642 95.6616 25.3305 96.0494 25.4631C96.4371 25.5956 96.7901 25.8111 97.1083 26.1094C97.4265 26.4044 97.68 26.7955 97.869 27.2827C98.0579 27.7699 98.1523 28.3698 98.1523 29.0824V29.5795H92.266V28.5653H96.9592C96.9592 28.1345 96.873 27.75 96.7006 27.4119C96.5316 27.0739 96.2897 26.8071 95.9748 26.6115C95.6632 26.416 95.2953 26.3182 94.8711 26.3182C94.4038 26.3182 93.9994 26.4342 93.658 26.6662C93.32 26.8949 93.0598 27.1932 92.8775 27.5611C92.6952 27.929 92.604 28.3234 92.604 28.7443V29.4205C92.604 29.9972 92.7035 30.486 92.9023 30.8871C93.1045 31.2848 93.3846 31.5881 93.7425 31.7969C94.1005 32.0024 94.5165 32.1051 94.9904 32.1051C95.2987 32.1051 95.5771 32.062 95.8256 31.9759C96.0775 31.8864 96.2946 31.7538 96.4769 31.5781C96.6592 31.3991 96.8001 31.1771 96.8995 30.9119L98.033 31.2301C97.9137 31.6146 97.7132 31.9527 97.4315 32.2443C97.1497 32.5327 96.8017 32.758 96.3874 32.9205C95.9731 33.0795 95.5075 33.1591 94.9904 33.1591ZM102.184 33.179C101.7 33.179 101.261 33.0878 100.867 32.9055C100.472 32.7199 100.159 32.4531 99.9272 32.1051C99.6952 31.7538 99.5792 31.3295 99.5792 30.8324C99.5792 30.3949 99.6654 30.0402 99.8377 29.7685C100.01 29.4934 100.24 29.2779 100.529 29.1222C100.817 28.9664 101.135 28.8504 101.483 28.7741C101.835 28.6946 102.188 28.6316 102.542 28.5852C103.006 28.5256 103.382 28.4808 103.671 28.451C103.962 28.4179 104.175 28.3632 104.307 28.2869C104.443 28.2107 104.511 28.0781 104.511 27.8892V27.8494C104.511 27.3589 104.377 26.9777 104.108 26.706C103.843 26.4342 103.44 26.2983 102.9 26.2983C102.34 26.2983 101.901 26.4209 101.583 26.6662C101.265 26.9115 101.041 27.1733 100.912 27.4517L99.7979 27.054C99.9968 26.59 100.262 26.2287 100.593 25.9702C100.928 25.7083 101.293 25.526 101.687 25.4233C102.085 25.3172 102.476 25.2642 102.86 25.2642C103.106 25.2642 103.387 25.294 103.706 25.3537C104.027 25.41 104.337 25.5277 104.635 25.7067C104.937 25.8857 105.187 26.1558 105.386 26.517C105.585 26.8783 105.684 27.3622 105.684 27.9688V33H104.511V31.9659H104.451C104.372 32.1316 104.239 32.3089 104.054 32.4979C103.868 32.6868 103.621 32.8475 103.313 32.9801C103.005 33.1127 102.628 33.179 102.184 33.179ZM102.363 32.125C102.827 32.125 103.218 32.0339 103.537 31.8516C103.858 31.6693 104.1 31.4339 104.262 31.1456C104.428 30.8572 104.511 30.554 104.511 30.2358V29.1619C104.461 29.2216 104.352 29.2763 104.183 29.326C104.017 29.3724 103.825 29.4138 103.606 29.4503C103.391 29.4834 103.18 29.5133 102.975 29.5398C102.773 29.563 102.609 29.5829 102.483 29.5994C102.178 29.6392 101.893 29.7038 101.627 29.7933C101.366 29.8795 101.154 30.0104 100.991 30.1861C100.832 30.3584 100.752 30.5937 100.752 30.892C100.752 31.2997 100.903 31.608 101.205 31.8168C101.51 32.0223 101.896 32.125 102.363 32.125ZM107.826 33V25.3636H108.959V26.517H109.039C109.178 26.1392 109.43 25.8326 109.795 25.5973C110.159 25.362 110.57 25.2443 111.028 25.2443C111.114 25.2443 111.221 25.246 111.351 25.2493C111.48 25.2526 111.578 25.2576 111.644 25.2642V26.4574C111.604 26.4474 111.513 26.4325 111.371 26.4126C111.231 26.3894 111.084 26.3778 110.928 26.3778C110.557 26.3778 110.225 26.4557 109.934 26.6115C109.645 26.764 109.417 26.9761 109.248 27.2479C109.082 27.5163 108.999 27.8229 108.999 28.1676V33H107.826ZM118.444 27.0739L117.39 27.3722C117.324 27.1965 117.226 27.0258 117.097 26.8601C116.971 26.6911 116.798 26.5518 116.58 26.4425C116.361 26.3331 116.081 26.2784 115.739 26.2784C115.272 26.2784 114.883 26.3861 114.571 26.6016C114.263 26.8137 114.109 27.0838 114.109 27.4119C114.109 27.7036 114.215 27.9339 114.427 28.103C114.639 28.272 114.97 28.4129 115.421 28.5256L116.555 28.804C117.237 28.9697 117.746 29.2232 118.081 29.5646C118.416 29.9027 118.583 30.3385 118.583 30.8722C118.583 31.3097 118.457 31.7008 118.205 32.0455C117.957 32.3902 117.609 32.6619 117.161 32.8608C116.714 33.0597 116.193 33.1591 115.6 33.1591C114.821 33.1591 114.177 32.9901 113.666 32.652C113.156 32.3139 112.833 31.8201 112.697 31.1705L113.81 30.892C113.916 31.303 114.117 31.6113 114.412 31.8168C114.71 32.0223 115.1 32.125 115.58 32.125C116.127 32.125 116.561 32.009 116.883 31.777C117.208 31.5417 117.37 31.2599 117.37 30.9318C117.37 30.6667 117.277 30.4446 117.092 30.2656C116.906 30.0833 116.621 29.9474 116.237 29.858L114.964 29.5597C114.264 29.3939 113.751 29.1371 113.423 28.7891C113.098 28.4377 112.935 27.9986 112.935 27.4716C112.935 27.0407 113.056 26.6596 113.298 26.3281C113.544 25.9967 113.877 25.7365 114.298 25.5476C114.722 25.3587 115.202 25.2642 115.739 25.2642C116.495 25.2642 117.088 25.4299 117.519 25.7614C117.953 26.0928 118.262 26.5303 118.444 27.0739Z" fill="#1C1C21"/>
</svg>
