<svg width="405" height="72" viewBox="0 0 405 72" fill="none" xmlns="http://www.w3.org/2000/svg">
<path d="M388 36L405 36" stroke="#2869E8" stroke-opacity="0.8"/>
<path d="M0 36L17 36" stroke="#2869E8" stroke-opacity="0.8"/>
<path d="M38.3113 4.99142C40.5662 1.85756 44.1912 0 48.052 0H356.948C360.809 0 364.434 1.85755 366.689 4.99141L389 36L366.689 67.0086C364.434 70.1424 360.809 72 356.948 72H48.052C44.1912 72 40.5662 70.1424 38.3113 67.0086L16 36L38.3113 4.99142Z" fill="#2869E8" fill-opacity="0.4"/>
<path d="M38.7172 5.28344C40.8781 2.28016 44.3521 0.5 48.052 0.5H356.948C360.648 0.5 364.122 2.28016 366.283 5.28344L388.384 36L366.283 66.7166C364.122 69.7198 360.648 71.5 356.948 71.5H48.052C44.3521 71.5 40.8781 69.7198 38.7172 66.7166L16.616 36L38.7172 5.28344Z" stroke="#2869E8" stroke-opacity="0.8"/>
</svg>
