<svg width="320" height="32" viewBox="0 0 320 32" fill="none" xmlns="http://www.w3.org/2000/svg">
<path d="M41 16H0" stroke="#2869E8" stroke-opacity="0.8"/>
<path d="M320 16H279" stroke="#2869E8" stroke-opacity="0.8"/>
<path d="M53.184 3.34335C55.4187 1.198 58.3966 0 61.4944 0H258.506C261.603 0 264.581 1.198 266.816 3.34335L280 16L266.816 28.6567C264.581 30.802 261.603 32 258.506 32H61.4944C58.3966 32 55.4187 30.802 53.184 28.6566L40 16L53.184 3.34335Z" fill="white"/>
<path d="M53.5303 3.70404C55.6719 1.64809 58.5256 0.5 61.4944 0.5H258.506C261.474 0.5 264.328 1.64809 266.47 3.70404L279.278 16L266.47 28.296C264.328 30.3519 261.474 31.5 258.506 31.5H61.4944C58.5256 31.5 55.6719 30.3519 53.5303 28.296L40.722 16L53.5303 3.70404Z" stroke="#2869E8" stroke-opacity="0.8"/>
</svg>
